# MagicaVoxel @ Ephtracy

# group
o 

# material
mtllib MonsterBody.mtl
usemtl palette

# normals
vn -1 0 0
vn 1 0 0
vn 0 0 1
vn 0 0 -1
vn 0 -1 0
vn 0 1 0

# texcoords
vt 0.841797 0.5
vt 0.923828 0.5
vt 0.931641 0.5
vt 0.978516 0.5

# verts
v -0.4 0 0.5
v -0.4 0 -0.5
v -0.4 0.1 0.4
v -0.4 0.1 -0.4
v -0.4 0.2 0.4
v -0.4 0.2 -0.4
v -0.4 0.3 0.5
v -0.4 0.3 -0.5
v -0.3 0.1 0.4
v -0.3 0.1 -0.4
v -0.3 0.2 0.4
v -0.3 0.2 -0.4
v -0.3 0.3 0.3
v -0.3 0.3 -0.3
v -0.3 0.5 0.3
v -0.3 0.5 0.2
v -0.3 0.5 -0.2
v -0.3 0.5 -0.3
v -0.3 0.6 0.2
v -0.3 0.6 -0.2
v -0.2 0.6 0.1
v -0.2 0.6 -0.2
v -0.2 0.7 0.1
v -0.2 0.7 -0.2
v -0.1 0.6 0.2
v -0.1 0.6 0.1
v -0.1 0.7 0.2
v -0.1 0.7 0.1
v 0.1 0.6 0.2
v 0.1 0.6 0.1
v 0.1 0.7 0.2
v 0.1 0.7 0.1
v 0.2 0.6 0.1
v 0.2 0.6 -0.2
v 0.2 0.7 0.1
v 0.2 0.7 -0.2
v 0.3 0.1 0.4
v 0.3 0.1 -0.4
v 0.3 0.2 0.4
v 0.3 0.2 -0.4
v 0.3 0.3 0.3
v 0.3 0.3 -0.3
v 0.3 0.5 0.3
v 0.3 0.5 0.2
v 0.3 0.5 -0.2
v 0.3 0.5 -0.3
v 0.3 0.6 0.2
v 0.3 0.6 -0.2
v 0.4 0 0.5
v 0.4 0 -0.5
v 0.4 0.1 0.4
v 0.4 0.1 -0.4
v 0.4 0.2 0.4
v 0.4 0.2 -0.4
v 0.4 0.3 0.5
v 0.4 0.3 -0.5
v -0.4 0 0.5
v -0.4 0.3 0.5
v -0.3 0 0.5
v -0.3 0.3 0.5
v 0.3 0 0.5
v 0.3 0.3 0.5
v 0.4 0 0.5
v 0.4 0.3 0.5
v -0.3 0.3 0.3
v -0.3 0.5 0.3
v 0.3 0.3 0.3
v 0.3 0.5 0.3
v -0.3 0.5 0.2
v -0.3 0.6 0.2
v -0.1 0.6 0.2
v -0.1 0.7 0.2
v 0.1 0.6 0.2
v 0.1 0.7 0.2
v 0.3 0.5 0.2
v 0.3 0.6 0.2
v -0.2 0.6 0.1
v -0.2 0.7 0.1
v -0.1 0.6 0.1
v -0.1 0.7 0.1
v 0.1 0.6 0.1
v 0.1 0.7 0.1
v 0.2 0.6 0.1
v 0.2 0.7 0.1
v -0.4 0.1 -0.4
v -0.4 0.2 -0.4
v -0.3 0.1 -0.4
v -0.3 0.2 -0.4
v 0.3 0.1 -0.4
v 0.3 0.2 -0.4
v 0.4 0.1 -0.4
v 0.4 0.2 -0.4
v -0.4 0.1 0.4
v -0.4 0.2 0.4
v -0.3 0.1 0.4
v -0.3 0.2 0.4
v 0.3 0.1 0.4
v 0.3 0.2 0.4
v 0.4 0.1 0.4
v 0.4 0.2 0.4
v -0.3 0.5 -0.2
v -0.3 0.6 -0.2
v -0.2 0.6 -0.2
v -0.2 0.7 -0.2
v 0.2 0.6 -0.2
v 0.2 0.7 -0.2
v 0.3 0.5 -0.2
v 0.3 0.6 -0.2
v -0.3 0.3 -0.3
v -0.3 0.5 -0.3
v 0.3 0.3 -0.3
v 0.3 0.5 -0.3
v -0.4 0 -0.5
v -0.4 0.3 -0.5
v -0.3 0 -0.5
v -0.3 0.1 -0.5
v -0.3 0.2 -0.5
v -0.3 0.3 -0.5
v -0.1 0.1 -0.5
v -0.1 0.2 -0.5
v 0.1 0.1 -0.5
v 0.1 0.2 -0.5
v 0.3 0 -0.5
v 0.3 0.1 -0.5
v 0.3 0.2 -0.5
v 0.3 0.3 -0.5
v 0.4 0 -0.5
v 0.4 0.3 -0.5
v -0.4 0 0.5
v -0.3 0 0.5
v 0.3 0 0.5
v 0.4 0 0.5
v -0.4 0 -0.5
v -0.3 0 -0.5
v 0.3 0 -0.5
v 0.4 0 -0.5
v -0.4 0.2 0.4
v -0.3 0.2 0.4
v 0.3 0.2 0.4
v 0.4 0.2 0.4
v -0.4 0.2 -0.4
v -0.3 0.2 -0.4
v 0.3 0.2 -0.4
v 0.4 0.2 -0.4
v -0.4 0.1 0.4
v -0.3 0.1 0.4
v 0.3 0.1 0.4
v 0.4 0.1 0.4
v -0.4 0.1 -0.4
v -0.3 0.1 -0.4
v 0.3 0.1 -0.4
v 0.4 0.1 -0.4
v -0.4 0.3 0.5
v -0.3 0.3 0.5
v 0.3 0.3 0.5
v 0.4 0.3 0.5
v -0.3 0.3 0.3
v 0.3 0.3 0.3
v -0.3 0.3 -0.3
v 0.3 0.3 -0.3
v -0.4 0.3 -0.5
v -0.3 0.3 -0.5
v 0.3 0.3 -0.5
v 0.4 0.3 -0.5
v -0.3 0.5 0.3
v 0.3 0.5 0.3
v -0.3 0.5 0.2
v 0.3 0.5 0.2
v -0.3 0.5 -0.2
v 0.3 0.5 -0.2
v -0.3 0.5 -0.3
v 0.3 0.5 -0.3
v -0.3 0.6 0.2
v -0.1 0.6 0.2
v 0.1 0.6 0.2
v 0.3 0.6 0.2
v -0.2 0.6 0.1
v -0.1 0.6 0.1
v 0.1 0.6 0.1
v 0.2 0.6 0.1
v -0.3 0.6 -0.2
v -0.2 0.6 -0.2
v 0.2 0.6 -0.2
v 0.3 0.6 -0.2
v -0.1 0.7 0.2
v 0.1 0.7 0.2
v -0.2 0.7 0.1
v -0.1 0.7 0.1
v 0.1 0.7 0.1
v 0.2 0.7 0.1
v -0.2 0.7 -0.2
v 0.2 0.7 -0.2

# faces
f 3/4/1 2/4/1 1/4/1
f 4/4/1 2/4/1 3/4/1
f 5/4/1 3/4/1 1/4/1
f 6/4/1 2/4/1 4/4/1
f 7/4/1 5/4/1 1/4/1
f 7/4/1 6/4/1 5/4/1
f 8/4/1 2/4/1 6/4/1
f 8/4/1 6/4/1 7/4/1
f 11/2/1 10/2/1 9/2/1
f 12/2/1 10/2/1 11/2/1
f 15/3/1 14/3/1 13/3/1
f 16/3/1 14/3/1 15/3/1
f 17/3/1 14/3/1 16/3/1
f 18/3/1 14/3/1 17/3/1
f 19/2/1 17/2/1 16/2/1
f 20/2/1 17/2/1 19/2/1
f 23/2/1 22/2/1 21/2/1
f 24/2/1 22/2/1 23/2/1
f 27/2/1 26/2/1 25/2/1
f 28/2/1 26/2/1 27/2/1
f 29/2/2 30/2/2 31/2/2
f 31/2/2 30/2/2 32/2/2
f 33/2/2 34/2/2 35/2/2
f 35/2/2 34/2/2 36/2/2
f 37/2/2 38/2/2 39/2/2
f 39/2/2 38/2/2 40/2/2
f 41/3/2 42/3/2 43/3/2
f 43/3/2 42/3/2 44/3/2
f 44/3/2 42/3/2 45/3/2
f 45/3/2 42/3/2 46/3/2
f 44/2/2 45/2/2 47/2/2
f 47/2/2 45/2/2 48/2/2
f 49/4/2 50/4/2 51/4/2
f 51/4/2 50/4/2 52/4/2
f 49/4/2 51/4/2 53/4/2
f 52/4/2 50/4/2 54/4/2
f 49/4/2 53/4/2 55/4/2
f 53/4/2 54/4/2 55/4/2
f 54/4/2 50/4/2 56/4/2
f 55/4/2 54/4/2 56/4/2
f 59/4/3 58/4/3 57/4/3
f 60/4/3 58/4/3 59/4/3
f 61/2/3 60/2/3 59/2/3
f 62/2/3 60/2/3 61/2/3
f 63/4/3 62/4/3 61/4/3
f 64/4/3 62/4/3 63/4/3
f 67/3/3 66/3/3 65/3/3
f 68/3/3 66/3/3 67/3/3
f 71/2/3 70/2/3 69/2/3
f 73/2/3 71/2/3 69/2/3
f 73/2/3 72/2/3 71/2/3
f 74/2/3 72/2/3 73/2/3
f 75/2/3 73/2/3 69/2/3
f 76/2/3 73/2/3 75/2/3
f 79/2/3 78/2/3 77/2/3
f 80/2/3 78/2/3 79/2/3
f 83/2/3 82/2/3 81/2/3
f 84/2/3 82/2/3 83/2/3
f 87/4/3 86/4/3 85/4/3
f 88/4/3 86/4/3 87/4/3
f 91/4/3 90/4/3 89/4/3
f 92/4/3 90/4/3 91/4/3
f 93/4/4 94/4/4 95/4/4
f 95/4/4 94/4/4 96/4/4
f 97/4/4 98/4/4 99/4/4
f 99/4/4 98/4/4 100/4/4
f 101/2/4 102/2/4 103/2/4
f 101/2/4 103/2/4 105/2/4
f 103/2/4 104/2/4 105/2/4
f 105/2/4 104/2/4 106/2/4
f 101/2/4 105/2/4 107/2/4
f 107/2/4 105/2/4 108/2/4
f 109/3/4 110/3/4 111/3/4
f 111/3/4 110/3/4 112/3/4
f 113/4/4 114/4/4 115/4/4
f 115/4/4 114/4/4 116/4/4
f 116/4/4 114/4/4 117/4/4
f 117/4/4 114/4/4 118/4/4
f 115/2/4 116/2/4 119/2/4
f 116/1/4 117/1/4 119/1/4
f 117/2/4 118/2/4 120/2/4
f 119/1/4 117/1/4 120/1/4
f 115/2/4 119/2/4 121/2/4
f 119/2/4 120/2/4 121/2/4
f 120/2/4 118/2/4 122/2/4
f 121/2/4 120/2/4 122/2/4
f 115/2/4 121/2/4 123/2/4
f 121/1/4 122/1/4 124/1/4
f 123/2/4 121/2/4 124/2/4
f 122/2/4 118/2/4 125/2/4
f 124/1/4 122/1/4 125/1/4
f 125/2/4 118/2/4 126/2/4
f 123/4/4 124/4/4 127/4/4
f 124/4/4 125/4/4 127/4/4
f 125/4/4 126/4/4 127/4/4
f 127/4/4 126/4/4 128/4/4
f 133/4/5 130/4/5 129/4/5
f 134/2/5 131/2/5 130/2/5
f 134/4/5 130/4/5 133/4/5
f 135/4/5 132/4/5 131/4/5
f 135/2/5 131/2/5 134/2/5
f 136/4/5 132/4/5 135/4/5
f 141/4/5 138/4/5 137/4/5
f 142/4/5 138/4/5 141/4/5
f 143/4/5 140/4/5 139/4/5
f 144/4/5 140/4/5 143/4/5
f 145/4/6 146/4/6 149/4/6
f 149/4/6 146/4/6 150/4/6
f 147/4/6 148/4/6 151/4/6
f 151/4/6 148/4/6 152/4/6
f 153/4/6 154/4/6 157/4/6
f 154/2/6 155/2/6 157/2/6
f 155/4/6 156/4/6 158/4/6
f 157/2/6 155/2/6 158/2/6
f 153/4/6 157/4/6 159/4/6
f 158/4/6 156/4/6 160/4/6
f 153/4/6 159/4/6 161/4/6
f 159/2/6 160/2/6 162/2/6
f 161/4/6 159/4/6 162/4/6
f 160/4/6 156/4/6 163/4/6
f 162/2/6 160/2/6 163/2/6
f 163/4/6 156/4/6 164/4/6
f 165/3/6 166/3/6 167/3/6
f 167/3/6 166/3/6 168/3/6
f 169/3/6 170/3/6 171/3/6
f 171/3/6 170/3/6 172/3/6
f 173/2/6 174/2/6 177/2/6
f 177/2/6 174/2/6 178/2/6
f 175/2/6 176/2/6 179/2/6
f 179/2/6 176/2/6 180/2/6
f 173/2/6 177/2/6 181/2/6
f 181/2/6 177/2/6 182/2/6
f 180/2/6 176/2/6 183/2/6
f 183/2/6 176/2/6 184/2/6
f 185/2/6 186/2/6 188/2/6
f 188/2/6 186/2/6 189/2/6
f 187/2/6 188/2/6 191/2/6
f 189/2/6 190/2/6 191/2/6
f 188/2/6 189/2/6 191/2/6
f 191/2/6 190/2/6 192/2/6
