# MagicaVoxel @ Ephtracy

# group
o 

# material
mtllib Tile_001.mtl
usemtl palette

# normals
vn -1 0 0
vn 1 0 0
vn 0 0 1
vn 0 0 -1
vn 0 -1 0
vn 0 1 0

# texcoords
vt 0.0683594 0.5
vt 0.232422 0.5
vt 0.884766 0.5
vt 0.892578 0.5
vt 0.900391 0.5

# verts
v -0.5 0 0.5
v -0.5 0 -0.5
v -0.5 0.1 0.5
v -0.5 0.1 0.1
v -0.5 0.1 -0.1
v -0.5 0.1 -0.5
v -0.5 0.2 0.5
v -0.5 0.2 0.3
v -0.5 0.2 0.1
v -0.5 0.2 -0.1
v -0.5 0.3 0.5
v -0.5 0.3 0.3
v -0.5 0.3 0.2
v -0.5 0.3 0.1
v -0.5 0.3 -0.3
v -0.5 0.3 -0.4
v -0.5 0.4 0.2
v -0.5 0.4 0.1
v -0.5 0.4 -0.3
v -0.5 0.4 -0.4
v -0.5 0.5 0.5
v -0.5 0.5 0.4
v -0.5 0.5 0.3
v -0.5 0.5 0.2
v -0.5 0.5 -0.1
v -0.5 0.5 -0.2
v -0.5 0.5 -0.4
v -0.5 0.5 -0.5
v -0.5 0.6 0.4
v -0.5 0.6 0.3
v -0.5 0.6 0.2
v -0.5 0.6 0.1
v -0.5 0.6 -0.2
v -0.5 0.6 -0.3
v -0.5 0.7 0.1
v -0.5 0.7 -0.1
v -0.5 0.7 -0.3
v -0.5 0.7 -0.4
v -0.5 1 0.5
v -0.5 1 -0.5
v 0.5 0 0.5
v 0.5 0 -0.5
v 0.5 0.1 0.5
v 0.5 0.1 0.4
v 0.5 0.1 0.3
v 0.5 0.1 0
v 0.5 0.1 -0.2
v 0.5 0.1 -0.5
v 0.5 0.2 0.4
v 0.5 0.2 0.3
v 0.5 0.2 0
v 0.5 0.2 -0.2
v 0.5 0.3 0.3
v 0.5 0.3 0.1
v 0.5 0.3 -0.3
v 0.5 0.3 -0.4
v 0.5 0.4 0.5
v 0.5 0.4 0.4
v 0.5 0.4 0.3
v 0.5 0.4 0.1
v 0.5 0.4 -0.3
v 0.5 0.4 -0.4
v 0.5 0.5 0.4
v 0.5 0.5 0.3
v 0.5 0.5 -0.1
v 0.5 0.5 -0.2
v 0.5 0.6 0.3
v 0.5 0.6 0.2
v 0.5 0.6 0
v 0.5 0.6 -0.1
v 0.5 0.6 -0.3
v 0.5 0.6 -0.4
v 0.5 0.7 0.2
v 0.5 0.7 0
v 0.5 0.7 -0.2
v 0.5 0.7 -0.3
v 0.5 0.7 -0.4
v 0.5 0.7 -0.5
v 0.5 0.9 0.1
v 0.5 0.9 0
v 0.5 0.9 -0.3
v 0.5 0.9 -0.4
v 0.5 1 0.5
v 0.5 1 0.1
v 0.5 1 0
v 0.5 1 -0.3
v 0.5 1 -0.4
v 0.5 1 -0.5
v -0.5 0 0.5
v -0.5 0.1 0.5
v -0.5 0.2 0.5
v -0.5 0.3 0.5
v -0.5 0.5 0.5
v -0.5 1 0.5
v -0.4 0.2 0.5
v -0.4 0.3 0.5
v -0.4 0.5 0.5
v -0.4 0.6 0.5
v -0.2 0.3 0.5
v -0.2 0.4 0.5
v -0.2 0.6 0.5
v -0.2 0.7 0.5
v -0.1 0.1 0.5
v -0.1 0.2 0.5
v -0.1 0.3 0.5
v -0.1 0.4 0.5
v 0 0.5 0.5
v 0 0.7 0.5
v 0.1 0.1 0.5
v 0.1 0.2 0.5
v 0.1 0.5 0.5
v 0.1 0.7 0.5
v 0.2 0.2 0.5
v 0.2 0.3 0.5
v 0.3 0.6 0.5
v 0.3 0.7 0.5
v 0.4 0.2 0.5
v 0.4 0.3 0.5
v 0.4 0.4 0.5
v 0.4 0.6 0.5
v 0.5 0 0.5
v 0.5 0.1 0.5
v 0.5 0.4 0.5
v 0.5 1 0.5
v -0.5 0 -0.5
v -0.5 0.1 -0.5
v -0.5 0.5 -0.5
v -0.5 1 -0.5
v -0.4 0.1 -0.5
v -0.4 0.2 -0.5
v -0.4 0.5 -0.5
v -0.4 0.7 -0.5
v -0.3 0.4 -0.5
v -0.3 0.5 -0.5
v -0.2 0.1 -0.5
v -0.2 0.2 -0.5
v -0.2 0.4 -0.5
v -0.2 0.5 -0.5
v -0.1 0.5 -0.5
v -0.1 0.7 -0.5
v 0 0.1 -0.5
v 0 0.2 -0.5
v 0 0.5 -0.5
v 0 0.6 -0.5
v 0.1 0.3 -0.5
v 0.1 0.4 -0.5
v 0.1 0.6 -0.5
v 0.1 0.7 -0.5
v 0.2 0.1 -0.5
v 0.2 0.2 -0.5
v 0.3 0.3 -0.5
v 0.3 0.4 -0.5
v 0.3 0.5 -0.5
v 0.3 0.7 -0.5
v 0.4 0.5 -0.5
v 0.4 0.7 -0.5
v 0.5 0 -0.5
v 0.5 0.1 -0.5
v 0.5 0.7 -0.5
v 0.5 1 -0.5
v -0.5 0 0.5
v 0.5 0 0.5
v -0.5 0 -0.5
v 0.5 0 -0.5
v -0.5 1 0.5
v 0.5 1 0.5
v -0.1 1 0.4
v 0 1 0.4
v -0.4 1 0.3
v -0.2 1 0.3
v -0.1 1 0.3
v 0 1 0.3
v 0.1 1 0.3
v 0.3 1 0.3
v -0.4 1 0.2
v -0.2 1 0.2
v 0.1 1 0.2
v 0.3 1 0.2
v -0.2 1 0.1
v 0 1 0.1
v 0.3 1 0.1
v 0.5 1 0.1
v -0.2 1 0
v 0 1 0
v 0.3 1 0
v 0.5 1 0
v -0.4 1 -0.1
v -0.1 1 -0.1
v -0.4 1 -0.2
v -0.1 1 -0.2
v 0 1 -0.2
v 0.2 1 -0.2
v -0.3 1 -0.3
v -0.2 1 -0.3
v 0 1 -0.3
v 0.2 1 -0.3
v 0.4 1 -0.3
v 0.5 1 -0.3
v -0.3 1 -0.4
v -0.2 1 -0.4
v 0.4 1 -0.4
v 0.5 1 -0.4
v -0.5 1 -0.5
v 0.5 1 -0.5

# faces
f 3/2/1 2/2/1 1/2/1
f 4/2/1 2/2/1 3/2/1
f 5/2/1 2/2/1 4/2/1
f 6/2/1 2/2/1 5/2/1
f 7/1/1 4/1/1 3/1/1
f 8/1/1 4/1/1 7/1/1
f 9/2/1 5/2/1 4/2/1
f 9/1/1 4/1/1 8/1/1
f 10/1/1 6/1/1 5/1/1
f 10/2/1 5/2/1 9/2/1
f 11/2/1 8/2/1 7/2/1
f 12/1/1 9/1/1 8/1/1
f 12/2/1 8/2/1 11/2/1
f 12/1/1 10/1/1 9/1/1
f 13/1/1 10/1/1 12/1/1
f 14/1/1 10/1/1 13/1/1
f 15/1/1 6/1/1 10/1/1
f 15/1/1 10/1/1 14/1/1
f 16/1/1 6/1/1 15/1/1
f 17/2/1 14/2/1 13/2/1
f 17/1/1 12/1/1 11/1/1
f 17/1/1 13/1/1 12/1/1
f 18/1/1 15/1/1 14/1/1
f 18/2/1 14/2/1 17/2/1
f 19/2/1 16/2/1 15/2/1
f 19/1/1 15/1/1 18/1/1
f 20/1/1 6/1/1 16/1/1
f 20/2/1 16/2/1 19/2/1
f 21/1/1 19/1/1 18/1/1
f 21/1/1 18/1/1 17/1/1
f 21/1/1 20/1/1 19/1/1
f 21/1/1 17/1/1 11/1/1
f 22/1/1 20/1/1 21/1/1
f 23/1/1 20/1/1 22/1/1
f 24/1/1 20/1/1 23/1/1
f 25/1/1 20/1/1 24/1/1
f 26/1/1 20/1/1 25/1/1
f 27/1/1 6/1/1 20/1/1
f 27/1/1 20/1/1 26/1/1
f 28/1/1 6/1/1 27/1/1
f 29/3/1 22/3/1 21/3/1
f 29/1/1 23/1/1 22/1/1
f 30/3/1 24/3/1 23/3/1
f 30/1/1 23/1/1 29/1/1
f 31/1/1 25/1/1 24/1/1
f 31/3/1 24/3/1 30/3/1
f 32/1/1 25/1/1 31/1/1
f 33/3/1 26/3/1 25/3/1
f 33/1/1 27/1/1 26/1/1
f 34/1/1 27/1/1 33/1/1
f 35/1/1 25/1/1 32/1/1
f 35/3/1 30/3/1 29/3/1
f 35/3/1 32/3/1 31/3/1
f 35/3/1 31/3/1 30/3/1
f 36/3/1 34/3/1 33/3/1
f 36/1/1 25/1/1 35/1/1
f 36/3/1 33/3/1 25/3/1
f 37/1/1 27/1/1 34/1/1
f 37/3/1 34/3/1 36/3/1
f 38/3/1 28/3/1 27/3/1
f 38/1/1 27/1/1 37/1/1
f 39/3/1 36/3/1 35/3/1
f 39/3/1 37/3/1 36/3/1
f 39/3/1 38/3/1 37/3/1
f 39/3/1 35/3/1 29/3/1
f 39/3/1 29/3/1 21/3/1
f 40/3/1 28/3/1 38/3/1
f 40/3/1 38/3/1 39/3/1
f 41/2/2 42/2/2 43/2/2
f 43/2/2 42/2/2 44/2/2
f 44/2/2 42/2/2 45/2/2
f 45/2/2 42/2/2 46/2/2
f 46/2/2 42/2/2 47/2/2
f 47/2/2 42/2/2 48/2/2
f 43/1/2 44/1/2 49/1/2
f 44/2/2 45/2/2 49/2/2
f 45/1/2 46/1/2 50/1/2
f 49/2/2 45/2/2 50/2/2
f 46/2/2 47/2/2 51/2/2
f 50/1/2 46/1/2 51/1/2
f 47/1/2 48/1/2 52/1/2
f 51/2/2 47/2/2 52/2/2
f 50/1/2 51/1/2 53/1/2
f 49/1/2 50/1/2 53/1/2
f 51/1/2 52/1/2 53/1/2
f 53/1/2 52/1/2 54/1/2
f 52/1/2 48/1/2 55/1/2
f 54/1/2 52/1/2 55/1/2
f 55/1/2 48/1/2 56/1/2
f 43/1/2 49/1/2 57/1/2
f 49/1/2 53/1/2 57/1/2
f 57/1/2 53/1/2 58/1/2
f 53/2/2 54/2/2 59/2/2
f 58/1/2 53/1/2 59/1/2
f 54/1/2 55/1/2 60/1/2
f 59/2/2 54/2/2 60/2/2
f 55/2/2 56/2/2 61/2/2
f 60/1/2 55/1/2 61/1/2
f 56/1/2 48/1/2 62/1/2
f 61/2/2 56/2/2 62/2/2
f 57/3/2 58/3/2 63/3/2
f 60/1/2 61/1/2 63/1/2
f 61/1/2 62/1/2 63/1/2
f 59/1/2 60/1/2 63/1/2
f 58/1/2 59/1/2 63/1/2
f 63/1/2 62/1/2 64/1/2
f 64/1/2 62/1/2 65/1/2
f 65/1/2 62/1/2 66/1/2
f 63/3/2 64/3/2 67/3/2
f 64/1/2 65/1/2 67/1/2
f 67/1/2 65/1/2 68/1/2
f 68/1/2 65/1/2 69/1/2
f 65/3/2 66/3/2 70/3/2
f 69/1/2 65/1/2 70/1/2
f 66/1/2 62/1/2 71/1/2
f 62/1/2 48/1/2 72/1/2
f 71/1/2 62/1/2 72/1/2
f 68/1/2 69/1/2 73/1/2
f 67/3/2 68/3/2 73/3/2
f 69/3/2 70/3/2 74/3/2
f 73/1/2 69/1/2 74/1/2
f 66/1/2 71/1/2 75/1/2
f 74/3/2 70/3/2 75/3/2
f 70/3/2 66/3/2 75/3/2
f 71/3/2 72/3/2 76/3/2
f 75/1/2 71/1/2 76/1/2
f 72/1/2 48/1/2 77/1/2
f 76/3/2 72/3/2 77/3/2
f 77/1/2 48/1/2 78/1/2
f 73/3/2 74/3/2 79/3/2
f 75/3/2 76/3/2 79/3/2
f 77/3/2 78/3/2 79/3/2
f 76/3/2 77/3/2 79/3/2
f 74/3/2 75/3/2 79/3/2
f 79/3/2 78/3/2 80/3/2
f 80/3/2 78/3/2 81/3/2
f 81/3/2 78/3/2 82/3/2
f 57/3/2 63/3/2 83/3/2
f 67/3/2 73/3/2 83/3/2
f 63/3/2 67/3/2 83/3/2
f 73/3/2 79/3/2 83/3/2
f 79/5/2 80/5/2 84/5/2
f 83/3/2 79/3/2 84/3/2
f 80/3/2 81/3/2 85/3/2
f 84/5/2 80/5/2 85/5/2
f 81/5/2 82/5/2 86/5/2
f 85/3/2 81/3/2 86/3/2
f 82/3/2 78/3/2 87/3/2
f 86/5/2 82/5/2 87/5/2
f 87/3/2 78/3/2 88/3/2
f 95/1/3 91/1/3 90/1/3
f 95/2/3 92/2/3 91/2/3
f 96/1/3 93/1/3 92/1/3
f 96/2/3 92/2/3 95/2/3
f 97/3/3 94/3/3 93/3/3
f 97/1/3 93/1/3 96/1/3
f 98/3/3 94/3/3 97/3/3
f 99/1/3 96/1/3 95/1/3
f 99/1/3 97/1/3 96/1/3
f 99/1/3 98/1/3 97/1/3
f 100/1/3 98/1/3 99/1/3
f 101/3/3 94/3/3 98/3/3
f 101/1/3 98/1/3 100/1/3
f 102/3/3 94/3/3 101/3/3
f 103/2/3 90/2/3 89/2/3
f 103/1/3 95/1/3 90/1/3
f 103/1/3 99/1/3 95/1/3
f 104/1/3 99/1/3 103/1/3
f 105/2/3 100/2/3 99/2/3
f 105/1/3 99/1/3 104/1/3
f 106/1/3 102/1/3 101/1/3
f 106/2/3 100/2/3 105/2/3
f 106/1/3 101/1/3 100/1/3
f 107/1/3 105/1/3 104/1/3
f 107/1/3 102/1/3 106/1/3
f 107/1/3 106/1/3 105/1/3
f 108/3/3 94/3/3 102/3/3
f 108/1/3 102/1/3 107/1/3
f 109/2/3 104/2/3 103/2/3
f 109/2/3 103/2/3 89/2/3
f 110/1/3 107/1/3 104/1/3
f 110/2/3 104/2/3 109/2/3
f 111/3/3 108/3/3 107/3/3
f 111/1/3 107/1/3 110/1/3
f 112/3/3 94/3/3 108/3/3
f 112/3/3 108/3/3 111/3/3
f 113/1/3 111/1/3 110/1/3
f 113/1/3 110/1/3 109/1/3
f 113/1/3 112/1/3 111/1/3
f 114/1/3 112/1/3 113/1/3
f 115/1/3 112/1/3 114/1/3
f 116/3/3 94/3/3 112/3/3
f 116/1/3 112/1/3 115/1/3
f 117/1/3 113/1/3 109/1/3
f 117/2/3 114/2/3 113/2/3
f 118/1/3 115/1/3 114/1/3
f 118/2/3 114/2/3 117/2/3
f 119/1/3 115/1/3 118/1/3
f 120/3/3 116/3/3 115/3/3
f 120/1/3 115/1/3 119/1/3
f 121/2/3 109/2/3 89/2/3
f 122/1/3 117/1/3 109/1/3
f 122/2/3 109/2/3 121/2/3
f 122/1/3 119/1/3 118/1/3
f 122/1/3 118/1/3 117/1/3
f 123/3/3 120/3/3 119/3/3
f 123/1/3 119/1/3 122/1/3
f 124/3/3 116/3/3 120/3/3
f 124/3/3 120/3/3 123/3/3
f 124/3/3 94/3/3 116/3/3
f 125/2/4 126/2/4 129/2/4
f 126/1/4 127/1/4 129/1/4
f 129/1/4 127/1/4 130/1/4
f 127/3/4 128/3/4 131/3/4
f 130/1/4 127/1/4 131/1/4
f 131/3/4 128/3/4 132/3/4
f 130/1/4 131/1/4 133/1/4
f 131/1/4 132/1/4 133/1/4
f 133/1/4 132/1/4 134/1/4
f 129/2/4 130/2/4 135/2/4
f 125/2/4 129/2/4 135/2/4
f 130/1/4 133/1/4 136/1/4
f 135/2/4 130/2/4 136/2/4
f 133/2/4 134/2/4 137/2/4
f 136/1/4 133/1/4 137/1/4
f 134/1/4 132/1/4 138/1/4
f 137/2/4 134/2/4 138/2/4
f 136/1/4 137/1/4 139/1/4
f 138/1/4 132/1/4 139/1/4
f 137/1/4 138/1/4 139/1/4
f 135/1/4 136/1/4 139/1/4
f 132/3/4 128/3/4 140/3/4
f 139/1/4 132/1/4 140/1/4
f 125/2/4 135/2/4 141/2/4
f 135/1/4 139/1/4 141/1/4
f 141/1/4 139/1/4 142/1/4
f 139/3/4 140/3/4 143/3/4
f 142/1/4 139/1/4 143/1/4
f 143/3/4 140/3/4 144/3/4
f 142/1/4 143/1/4 145/1/4
f 143/1/4 144/1/4 145/1/4
f 145/1/4 144/1/4 146/1/4
f 144/3/4 140/3/4 147/3/4
f 146/1/4 144/1/4 147/1/4
f 140/3/4 128/3/4 148/3/4
f 147/3/4 140/3/4 148/3/4
f 141/2/4 142/2/4 149/2/4
f 125/2/4 141/2/4 149/2/4
f 142/1/4 145/1/4 150/1/4
f 149/2/4 142/2/4 150/2/4
f 145/2/4 146/2/4 151/2/4
f 150/1/4 145/1/4 151/1/4
f 149/1/4 150/1/4 151/1/4
f 146/1/4 147/1/4 152/1/4
f 151/2/4 146/2/4 152/2/4
f 147/1/4 148/1/4 152/1/4
f 152/1/4 148/1/4 153/1/4
f 148/3/4 128/3/4 154/3/4
f 153/1/4 148/1/4 154/1/4
f 152/1/4 153/1/4 155/1/4
f 151/1/4 152/1/4 155/1/4
f 153/3/4 154/3/4 155/3/4
f 154/3/4 128/3/4 156/3/4
f 155/3/4 154/3/4 156/3/4
f 125/2/4 149/2/4 157/2/4
f 149/1/4 151/1/4 158/1/4
f 157/2/4 149/2/4 158/2/4
f 151/1/4 155/1/4 158/1/4
f 155/1/4 156/1/4 158/1/4
f 156/3/4 128/3/4 159/3/4
f 158/1/4 156/1/4 159/1/4
f 159/3/4 128/3/4 160/3/4
f 163/2/5 162/2/5 161/2/5
f 164/2/5 162/2/5 163/2/5
f 165/3/6 166/3/6 167/3/6
f 167/3/6 166/3/6 168/3/6
f 165/3/6 167/3/6 169/3/6
f 169/3/6 167/3/6 170/3/6
f 167/5/6 168/5/6 171/5/6
f 170/3/6 167/3/6 171/3/6
f 168/3/6 166/3/6 172/3/6
f 171/5/6 168/5/6 172/5/6
f 172/3/6 166/3/6 173/3/6
f 173/3/6 166/3/6 174/3/6
f 169/4/6 170/4/6 175/4/6
f 165/3/6 169/3/6 175/3/6
f 170/3/6 171/3/6 176/3/6
f 175/4/6 170/4/6 176/4/6
f 171/3/6 172/3/6 176/3/6
f 172/3/6 173/3/6 176/3/6
f 173/4/6 174/4/6 177/4/6
f 176/3/6 173/3/6 177/3/6
f 174/3/6 166/3/6 178/3/6
f 177/4/6 174/4/6 178/4/6
f 176/3/6 177/3/6 179/3/6
f 175/3/6 176/3/6 179/3/6
f 177/3/6 178/3/6 179/3/6
f 179/3/6 178/3/6 180/3/6
f 178/3/6 166/3/6 181/3/6
f 180/3/6 178/3/6 181/3/6
f 181/3/6 166/3/6 182/3/6
f 179/4/6 180/4/6 183/4/6
f 175/3/6 179/3/6 183/3/6
f 180/3/6 181/3/6 184/3/6
f 183/4/6 180/4/6 184/4/6
f 181/5/6 182/5/6 185/5/6
f 184/3/6 181/3/6 185/3/6
f 185/5/6 182/5/6 186/5/6
f 165/3/6 175/3/6 187/3/6
f 183/3/6 184/3/6 187/3/6
f 185/3/6 186/3/6 187/3/6
f 184/3/6 185/3/6 187/3/6
f 175/3/6 183/3/6 187/3/6
f 187/3/6 186/3/6 188/3/6
f 165/3/6 187/3/6 189/3/6
f 187/4/6 188/4/6 189/4/6
f 188/3/6 186/3/6 190/3/6
f 189/4/6 188/4/6 190/4/6
f 190/3/6 186/3/6 191/3/6
f 191/3/6 186/3/6 192/3/6
f 189/3/6 190/3/6 193/3/6
f 190/3/6 191/3/6 193/3/6
f 193/3/6 191/3/6 194/3/6
f 191/4/6 192/4/6 195/4/6
f 194/3/6 191/3/6 195/3/6
f 192/3/6 186/3/6 196/3/6
f 195/4/6 192/4/6 196/4/6
f 196/3/6 186/3/6 197/3/6
f 197/3/6 186/3/6 198/3/6
f 193/5/6 194/5/6 199/5/6
f 189/3/6 193/3/6 199/3/6
f 194/3/6 195/3/6 200/3/6
f 199/5/6 194/5/6 200/5/6
f 195/3/6 196/3/6 200/3/6
f 196/3/6 197/3/6 200/3/6
f 197/5/6 198/5/6 201/5/6
f 200/3/6 197/3/6 201/3/6
f 201/5/6 198/5/6 202/5/6
f 165/3/6 189/3/6 203/3/6
f 189/3/6 199/3/6 203/3/6
f 201/3/6 202/3/6 203/3/6
f 200/3/6 201/3/6 203/3/6
f 199/3/6 200/3/6 203/3/6
f 203/3/6 202/3/6 204/3/6
